{
	"asset":{
		"generator":"Khronos glTF Blender I/O v4.4.55",
		"version":"2.0"
	},
	"extensionsUsed":[
		"KHR_materials_specular"
	],
	"scene":0,
	"scenes":[
		{
			"name":"Scene",
			"nodes":[
				0,
				1,
				2,
				3,
				4,
				5,
				6,
				7,
				8,
				9,
				10
			]
		}
	],
	"nodes":[
		{
			"mesh":0,
			"name":"eye001.000",
			"scale":[
				0.22578677535057068,
				0.22578677535057068,
				0.22578677535057068
			]
		},
		{
			"mesh":1,
			"name":"eye001.001",
			"scale":[
				0.22578677535057068,
				0.22578677535057068,
				0.22578677535057068
			]
		},
		{
			"mesh":2,
			"name":"half pant",
			"scale":[
				0.22578677535057068,
				0.22578677535057068,
				0.22578677535057068
			]
		},
		{
			"mesh":3,
			"name":"inner pant",
			"scale":[
				0.22578677535057068,
				0.22578677535057068,
				0.22578677535057068
			]
		},
		{
			"mesh":4,
			"name":"inner wear",
			"scale":[
				0.22578677535057068,
				0.22578677535057068,
				0.22578677535057068
			]
		},
		{
			"mesh":5,
			"name":"jacket",
			"scale":[
				0.22578677535057068,
				0.22578677535057068,
				0.22578677535057068
			]
		},
		{
			"mesh":6,
			"name":"knee pad",
			"scale":[
				0.22578677535057068,
				0.22578677535057068,
				0.22578677535057068
			]
		},
		{
			"mesh":7,
			"name":"shoe",
			"scale":[
				0.22578677535057068,
				0.22578677535057068,
				0.22578677535057068
			]
		},
		{
			"mesh":8,
			"name":"anime boy hair",
			"scale":[
				0.22578677535057068,
				0.22578677535057068,
				0.22578677535057068
			]
		},
		{
			"mesh":9,
			"name":"teeth",
			"rotation":[
				2.8043637939845212e-05,
				0.039488181471824646,
				-0.9992198348045349,
				0.0007111519807949662
			],
			"scale":[
				0.00469287671148777,
				0.004391210153698921,
				0.005415696185082197
			]
		},
		{
			"mesh":10,
			"name":"tongue",
			"rotation":[
				0.05355682969093323,
				0,
				0,
				0.9985647797584534
			],
			"scale":[
				-0.029840728268027306,
				-0.024479469284415245,
				-0.027453266084194183
			]
		}
	],
	"materials":[
		{
			"doubleSided":true,
			"extensions":{
				"KHR_materials_specular":{
					"specularColorFactor":[
						2.0,
						2.0,
						2.0
					]
				}
			},
			"name":"Material.014",
			"pbrMetallicRoughness":{
				"baseColorFactor":[
					0.14754080772399902,
					0.8000156879425049,
					0.0485449880361557,
					1
				],
				"roughnessFactor":0.5527864098548889
			}
		},
		{
			"doubleSided":true,
			"extensions":{
				"KHR_materials_specular":{
					"specularColorFactor":[
						2.0,
						2.0,
						2.0
					]
				}
			},
			"name":"eye001",
			"pbrMetallicRoughness":{
				"baseColorFactor":[
					0.800000011920929,
					0.800000011920929,
					0.800000011920929,
					1
				],
				"roughnessFactor":0.5527864098548889
			}
		},
		{
			"doubleSided":true,
			"extensions":{
				"KHR_materials_specular":{
					"specularColorFactor":[
						2.0,
						2.0,
						2.0
					]
				}
			},
			"name":"Material.008",
			"pbrMetallicRoughness":{
				"baseColorFactor":[
					0.7601372003555298,
					0.07107339054346085,
					0.8000074625015259,
					1
				],
				"roughnessFactor":0.5527864098548889
			}
		},
		{
			"doubleSided":true,
			"extensions":{
				"KHR_materials_specular":{
					"specularColorFactor":[
						2.0,
						2.0,
						2.0
					]
				}
			},
			"name":"Material.016",
			"pbrMetallicRoughness":{
				"baseColorFactor":[
					0.800000011920929,
					0.800000011920929,
					0.800000011920929,
					1
				],
				"roughnessFactor":0.5527864098548889
			}
		},
		{
			"doubleSided":true,
			"extensions":{
				"KHR_materials_specular":{
					"specularColorFactor":[
						2.0,
						2.0,
						2.0
					]
				}
			},
			"name":"Material.006",
			"pbrMetallicRoughness":{
				"baseColorFactor":[
					0.03408784046769142,
					0.8000156879425049,
					0.22482283413410187,
					1
				],
				"roughnessFactor":0.5527864098548889
			}
		},
		{
			"doubleSided":true,
			"extensions":{
				"KHR_materials_specular":{
					"specularColorFactor":[
						2.0,
						2.0,
						2.0
					]
				}
			},
			"name":"Material.009",
			"pbrMetallicRoughness":{
				"baseColorFactor":[
					0.0804029330611229,
					0.08855176717042923,
					0.8000074625015259,
					1
				],
				"roughnessFactor":0.5527864098548889
			}
		},
		{
			"doubleSided":true,
			"extensions":{
				"KHR_materials_specular":{
					"specularColorFactor":[
						2.0,
						2.0,
						2.0
					]
				}
			},
			"name":"Material.010",
			"pbrMetallicRoughness":{
				"baseColorFactor":[
					0.8000074625015259,
					0.027821309864521027,
					0.022045709192752838,
					1
				],
				"roughnessFactor":0.5527864098548889
			}
		},
		{
			"doubleSided":true,
			"extensions":{
				"KHR_materials_specular":{
					"specularColorFactor":[
						2.0,
						2.0,
						2.0
					]
				}
			},
			"name":"Material.005",
			"pbrMetallicRoughness":{
				"baseColorFactor":[
					0.03602025285363197,
					0.013408945873379707,
					0.8000626564025879,
					1
				],
				"roughnessFactor":0.5527864098548889
			}
		},
		{
			"doubleSided":true,
			"extensions":{
				"KHR_materials_specular":{
					"specularColorFactor":[
						2.0,
						2.0,
						2.0
					]
				}
			},
			"name":"Material.001",
			"pbrMetallicRoughness":{
				"baseColorFactor":[
					0.7738980054855347,
					0.800039529800415,
					0.4138350784778595,
					1
				],
				"roughnessFactor":0.5527864098548889
			}
		},
		{
			"doubleSided":true,
			"extensions":{
				"KHR_materials_specular":{
					"specularColorFactor":[
						2.0,
						2.0,
						2.0
					]
				}
			},
			"name":"Material.012",
			"pbrMetallicRoughness":{
				"baseColorFactor":[
					0.800000011920929,
					0.800000011920929,
					0.800000011920929,
					1
				],
				"roughnessFactor":0.5527864098548889
			}
		},
		{
			"doubleSided":true,
			"extensions":{
				"KHR_materials_specular":{
					"specularColorFactor":[
						2.0,
						2.0,
						2.0
					]
				}
			},
			"name":"lip",
			"pbrMetallicRoughness":{
				"baseColorFactor":[
					0.800000011920929,
					0.800000011920929,
					0.800000011920929,
					1
				],
				"roughnessFactor":0.5527864098548889
			}
		},
		{
			"doubleSided":true,
			"extensions":{
				"KHR_materials_specular":{
					"specularColorFactor":[
						2.0,
						2.0,
						2.0
					]
				}
			},
			"name":"Material.002",
			"pbrMetallicRoughness":{
				"baseColorFactor":[
					0.800000011920929,
					0.800000011920929,
					0.800000011920929,
					1
				],
				"roughnessFactor":0.5527864098548889
			}
		}
	],
	"meshes":[
		{
			"name":"Sphere.006",
			"primitives":[
				{
					"attributes":{
						"POSITION":0,
						"NORMAL":1,
						"TEXCOORD_0":2
					},
					"indices":3,
					"material":0
				},
				{
					"attributes":{
						"POSITION":4,
						"NORMAL":5,
						"TEXCOORD_0":6
					},
					"indices":7,
					"material":1
				}
			]
		},
		{
			"name":"Sphere.005",
			"primitives":[
				{
					"attributes":{
						"POSITION":8,
						"NORMAL":9,
						"TEXCOORD_0":10
					},
					"indices":11,
					"material":0
				},
				{
					"attributes":{
						"POSITION":12,
						"NORMAL":13,
						"TEXCOORD_0":14
					},
					"indices":15,
					"material":1
				}
			]
		},
		{
			"name":"Mesh",
			"primitives":[
				{
					"attributes":{
						"POSITION":16,
						"NORMAL":17,
						"COLOR_0":18,
						"COLOR_1":19
					},
					"indices":20,
					"material":2
				}
			]
		},
		{
			"name":"Mesh.001",
			"primitives":[
				{
					"attributes":{
						"POSITION":21,
						"NORMAL":22,
						"TEXCOORD_0":23,
						"COLOR_0":24,
						"COLOR_1":25
					},
					"indices":26,
					"material":3
				}
			]
		},
		{
			"name":"Mesh.002",
			"primitives":[
				{
					"attributes":{
						"POSITION":27,
						"NORMAL":28,
						"TEXCOORD_0":29,
						"COLOR_0":30,
						"COLOR_1":31
					},
					"indices":32,
					"material":4
				}
			]
		},
		{
			"name":"Mesh.003",
			"primitives":[
				{
					"attributes":{
						"POSITION":33,
						"NORMAL":34,
						"COLOR_0":35,
						"COLOR_1":36
					},
					"indices":37,
					"material":5
				}
			]
		},
		{
			"name":"Mesh.004",
			"primitives":[
				{
					"attributes":{
						"POSITION":38,
						"NORMAL":39,
						"COLOR_0":40,
						"COLOR_1":41
					},
					"indices":42,
					"material":6
				}
			]
		},
		{
			"name":"Mesh.005",
			"primitives":[
				{
					"attributes":{
						"POSITION":43,
						"NORMAL":44,
						"COLOR_0":45,
						"COLOR_1":46
					},
					"indices":47,
					"material":7
				}
			]
		},
		{
			"name":"Mesh.006",
			"primitives":[
				{
					"attributes":{
						"POSITION":48,
						"NORMAL":49,
						"COLOR_0":50,
						"COLOR_1":51
					},
					"indices":52,
					"material":8
				},
				{
					"attributes":{
						"POSITION":53,
						"NORMAL":54,
						"COLOR_0":55,
						"COLOR_1":56
					},
					"indices":57,
					"material":9
				},
				{
					"attributes":{
						"POSITION":58,
						"NORMAL":59,
						"COLOR_0":60,
						"COLOR_1":61
					},
					"indices":62,
					"material":10
				}
			]
		},
		{
			"name":"Cube.002",
			"primitives":[
				{
					"attributes":{
						"POSITION":63,
						"NORMAL":64
					},
					"indices":65,
					"material":11
				}
			]
		},
		{
			"name":"Mesh.007",
			"primitives":[
				{
					"attributes":{
						"POSITION":66,
						"NORMAL":67
					},
					"indices":68
				}
			]
		}
	],
	"accessors":[
		{
			"bufferView":0,
			"componentType":5126,
			"count":882,
			"max":[
				-0.21289607882499695,
				7.1044487953186035,
				0.2806854546070099
			],
			"min":[
				-0.4521871507167816,
				6.86030912399292,
				0.041507840156555176
			],
			"type":"VEC3"
		},
		{
			"bufferView":1,
			"componentType":5126,
			"count":882,
			"type":"VEC3"
		},
		{
			"bufferView":2,
			"componentType":5126,
			"count":882,
			"type":"VEC2"
		},
		{
			"bufferView":3,
			"componentType":5123,
			"count":4560,
			"type":"SCALAR"
		},
		{
			"bufferView":4,
			"componentType":5126,
			"count":721,
			"max":[
				-0.214462548494339,
				7.100425720214844,
				0.25767192244529724
			],
			"min":[
				-0.45062074065208435,
				6.864333152770996,
				0.08772191405296326
			],
			"type":"VEC3"
		},
		{
			"bufferView":5,
			"componentType":5126,
			"count":721,
			"type":"VEC3"
		},
		{
			"bufferView":6,
			"componentType":5126,
			"count":721,
			"type":"VEC2"
		},
		{
			"bufferView":7,
			"componentType":5123,
			"count":3960,
			"type":"SCALAR"
		},
		{
			"bufferView":8,
			"componentType":5126,
			"count":882,
			"max":[
				0.45218712091445923,
				7.104448318481445,
				0.2806854248046875
			],
			"min":[
				0.21289604902267456,
				6.860308647155762,
				0.04150781035423279
			],
			"type":"VEC3"
		},
		{
			"bufferView":9,
			"componentType":5126,
			"count":882,
			"type":"VEC3"
		},
		{
			"bufferView":10,
			"componentType":5126,
			"count":882,
			"type":"VEC2"
		},
		{
			"bufferView":11,
			"componentType":5123,
			"count":4560,
			"type":"SCALAR"
		},
		{
			"bufferView":12,
			"componentType":5126,
			"count":721,
			"max":[
				0.4506206512451172,
				7.100424766540527,
				0.25767189264297485
			],
			"min":[
				0.2144625335931778,
				6.864332675933838,
				0.08772188425064087
			],
			"type":"VEC3"
		},
		{
			"bufferView":13,
			"componentType":5126,
			"count":721,
			"type":"VEC3"
		},
		{
			"bufferView":14,
			"componentType":5126,
			"count":721,
			"type":"VEC2"
		},
		{
			"bufferView":15,
			"componentType":5123,
			"count":3960,
			"type":"SCALAR"
		},
		{
			"bufferView":16,
			"componentType":5126,
			"count":2558,
			"max":[
				0.8437471985816956,
				4.069822311401367,
				0.19685041904449463
			],
			"min":[
				-0.8437471389770508,
				2.9033243656158447,
				-0.9865847826004028
			],
			"type":"VEC3"
		},
		{
			"bufferView":17,
			"componentType":5126,
			"count":2558,
			"type":"VEC3"
		},
		{
			"bufferView":18,
			"componentType":5121,
			"count":2558,
			"normalized":true,
			"type":"VEC4"
		},
		{
			"bufferView":19,
			"componentType":5123,
			"count":2558,
			"normalized":true,
			"type":"VEC4"
		},
		{
			"bufferView":20,
			"componentType":5123,
			"count":15360,
			"type":"SCALAR"
		},
		{
			"bufferView":21,
			"componentType":5126,
			"count":2396,
			"max":[
				0.8437471985816956,
				4.069822311401367,
				0.19685041904449463
			],
			"min":[
				-0.8437471389770508,
				3.0365092754364014,
				-0.9865847826004028
			],
			"type":"VEC3"
		},
		{
			"bufferView":22,
			"componentType":5126,
			"count":2396,
			"type":"VEC3"
		},
		{
			"bufferView":23,
			"componentType":5126,
			"count":2396,
			"type":"VEC2"
		},
		{
			"bufferView":24,
			"componentType":5121,
			"count":2396,
			"normalized":true,
			"type":"VEC4"
		},
		{
			"bufferView":25,
			"componentType":5123,
			"count":2396,
			"normalized":true,
			"type":"VEC4"
		},
		{
			"bufferView":26,
			"componentType":5123,
			"count":13824,
			"type":"SCALAR"
		},
		{
			"bufferView":27,
			"componentType":5126,
			"count":1212,
			"max":[
				0.8426341414451599,
				5.958674430847168,
				0.22786277532577515
			],
			"min":[
				-0.8396424055099487,
				3.584066390991211,
				-1.0194330215454102
			],
			"type":"VEC3"
		},
		{
			"bufferView":28,
			"componentType":5126,
			"count":1212,
			"type":"VEC3"
		},
		{
			"bufferView":29,
			"componentType":5126,
			"count":1212,
			"type":"VEC2"
		},
		{
			"bufferView":30,
			"componentType":5121,
			"count":1212,
			"normalized":true,
			"type":"VEC4"
		},
		{
			"bufferView":31,
			"componentType":5123,
			"count":1212,
			"normalized":true,
			"type":"VEC4"
		},
		{
			"bufferView":32,
			"componentType":5123,
			"count":6960,
			"type":"SCALAR"
		},
		{
			"bufferView":33,
			"componentType":5126,
			"count":2678,
			"max":[
				2.040102958679199,
				6.183116436004639,
				0.24310879409313202
			],
			"min":[
				-2.039267063140869,
				3.4838356971740723,
				-1.136129379272461
			],
			"type":"VEC3"
		},
		{
			"bufferView":34,
			"componentType":5126,
			"count":2678,
			"type":"VEC3"
		},
		{
			"bufferView":35,
			"componentType":5121,
			"count":2678,
			"normalized":true,
			"type":"VEC4"
		},
		{
			"bufferView":36,
			"componentType":5123,
			"count":2678,
			"normalized":true,
			"type":"VEC4"
		},
		{
			"bufferView":37,
			"componentType":5123,
			"count":16032,
			"type":"SCALAR"
		},
		{
			"bufferView":38,
			"componentType":5126,
			"count":256,
			"max":[
				-0.27582406997680664,
				2.1230931282043457,
				-0.33811867237091064
			],
			"min":[
				-0.7556167840957642,
				1.4537150859832764,
				-0.8726349472999573
			],
			"type":"VEC3"
		},
		{
			"bufferView":39,
			"componentType":5126,
			"count":256,
			"type":"VEC3"
		},
		{
			"bufferView":40,
			"componentType":5121,
			"count":256,
			"normalized":true,
			"type":"VEC4"
		},
		{
			"bufferView":41,
			"componentType":5123,
			"count":256,
			"normalized":true,
			"type":"VEC4"
		},
		{
			"bufferView":42,
			"componentType":5123,
			"count":1536,
			"type":"SCALAR"
		},
		{
			"bufferView":43,
			"componentType":5126,
			"count":4864,
			"max":[
				0.8118706941604614,
				0.6041464805603027,
				0.10487836599349976
			],
			"min":[
				-0.8118706941604614,
				0.0018000602722167969,
				-0.9149048924446106
			],
			"type":"VEC3"
		},
		{
			"bufferView":44,
			"componentType":5126,
			"count":4864,
			"type":"VEC3"
		},
		{
			"bufferView":45,
			"componentType":5121,
			"count":4864,
			"normalized":true,
			"type":"VEC4"
		},
		{
			"bufferView":46,
			"componentType":5123,
			"count":4864,
			"normalized":true,
			"type":"VEC4"
		},
		{
			"bufferView":47,
			"componentType":5123,
			"count":29136,
			"type":"SCALAR"
		},
		{
			"bufferView":48,
			"componentType":5126,
			"count":28055,
			"max":[
				3.5016286373138428,
				8.182074546813965,
				0.5065974593162537
			],
			"min":[
				-3.5016286373138428,
				0.04642242193222046,
				-1.1661375761032104
			],
			"type":"VEC3"
		},
		{
			"bufferView":49,
			"componentType":5126,
			"count":28055,
			"type":"VEC3"
		},
		{
			"bufferView":50,
			"componentType":5121,
			"count":28055,
			"normalized":true,
			"type":"VEC4"
		},
		{
			"bufferView":51,
			"componentType":5123,
			"count":28055,
			"normalized":true,
			"type":"VEC4"
		},
		{
			"bufferView":52,
			"componentType":5123,
			"count":161664,
			"type":"SCALAR"
		},
		{
			"bufferView":53,
			"componentType":5126,
			"count":410,
			"max":[
				0.5398225784301758,
				7.244837760925293,
				0.44326192140579224
			],
			"min":[
				-0.5398225784301758,
				7.122640609741211,
				0.16393476724624634
			],
			"type":"VEC3"
		},
		{
			"bufferView":54,
			"componentType":5126,
			"count":410,
			"type":"VEC3"
		},
		{
			"bufferView":55,
			"componentType":5121,
			"count":410,
			"normalized":true,
			"type":"VEC4"
		},
		{
			"bufferView":56,
			"componentType":5123,
			"count":410,
			"normalized":true,
			"type":"VEC4"
		},
		{
			"bufferView":57,
			"componentType":5123,
			"count":1920,
			"type":"SCALAR"
		},
		{
			"bufferView":58,
			"componentType":5126,
			"count":280,
			"max":[
				0.13831567764282227,
				6.575047969818115,
				0.3905407190322876
			],
			"min":[
				-0.13831567764282227,
				6.487948417663574,
				0.29196107387542725
			],
			"type":"VEC3"
		},
		{
			"bufferView":59,
			"componentType":5126,
			"count":280,
			"type":"VEC3"
		},
		{
			"bufferView":60,
			"componentType":5121,
			"count":280,
			"normalized":true,
			"type":"VEC4"
		},
		{
			"bufferView":61,
			"componentType":5123,
			"count":280,
			"normalized":true,
			"type":"VEC4"
		},
		{
			"bufferView":62,
			"componentType":5123,
			"count":1440,
			"type":"SCALAR"
		},
		{
			"bufferView":63,
			"componentType":5126,
			"count":5164,
			"max":[
				5.958709239959717,
				-332.5083923339844,
				-7.367959976196289
			],
			"min":[
				-6.856849193572998,
				-339.8487854003906,
				-17.236255645751953
			],
			"type":"VEC3"
		},
		{
			"bufferView":64,
			"componentType":5126,
			"count":5164,
			"type":"VEC3"
		},
		{
			"bufferView":65,
			"componentType":5123,
			"count":30528,
			"type":"SCALAR"
		},
		{
			"bufferView":66,
			"componentType":5126,
			"count":498,
			"max":[
				0.5486111044883728,
				-59.639366149902344,
				5.489638328552246
			],
			"min":[
				-0.5486111044883728,
				-60.19820022583008,
				3.3570480346679688
			],
			"type":"VEC3"
		},
		{
			"bufferView":67,
			"componentType":5126,
			"count":498,
			"type":"VEC3"
		},
		{
			"bufferView":68,
			"componentType":5123,
			"count":2976,
			"type":"SCALAR"
		}
	],
	"bufferViews":[
		{
			"buffer":0,
			"byteLength":10584,
			"byteOffset":0,
			"target":34962
		},
		{
			"buffer":0,
			"byteLength":10584,
			"byteOffset":10584,
			"target":34962
		},
		{
			"buffer":0,
			"byteLength":7056,
			"byteOffset":21168,
			"target":34962
		},
		{
			"buffer":0,
			"byteLength":9120,
			"byteOffset":28224,
			"target":34963
		},
		{
			"buffer":0,
			"byteLength":8652,
			"byteOffset":37344,
			"target":34962
		},
		{
			"buffer":0,
			"byteLength":8652,
			"byteOffset":45996,
			"target":34962
		},
		{
			"buffer":0,
			"byteLength":5768,
			"byteOffset":54648,
			"target":34962
		},
		{
			"buffer":0,
			"byteLength":7920,
			"byteOffset":60416,
			"target":34963
		},
		{
			"buffer":0,
			"byteLength":10584,
			"byteOffset":68336,
			"target":34962
		},
		{
			"buffer":0,
			"byteLength":10584,
			"byteOffset":78920,
			"target":34962
		},
		{
			"buffer":0,
			"byteLength":7056,
			"byteOffset":89504,
			"target":34962
		},
		{
			"buffer":0,
			"byteLength":9120,
			"byteOffset":96560,
			"target":34963
		},
		{
			"buffer":0,
			"byteLength":8652,
			"byteOffset":105680,
			"target":34962
		},
		{
			"buffer":0,
			"byteLength":8652,
			"byteOffset":114332,
			"target":34962
		},
		{
			"buffer":0,
			"byteLength":5768,
			"byteOffset":122984,
			"target":34962
		},
		{
			"buffer":0,
			"byteLength":7920,
			"byteOffset":128752,
			"target":34963
		},
		{
			"buffer":0,
			"byteLength":30696,
			"byteOffset":136672,
			"target":34962
		},
		{
			"buffer":0,
			"byteLength":30696,
			"byteOffset":167368,
			"target":34962
		},
		{
			"buffer":0,
			"byteLength":10232,
			"byteOffset":198064,
			"target":34962
		},
		{
			"buffer":0,
			"byteLength":20464,
			"byteOffset":208296,
			"target":34962
		},
		{
			"buffer":0,
			"byteLength":30720,
			"byteOffset":228760,
			"target":34963
		},
		{
			"buffer":0,
			"byteLength":28752,
			"byteOffset":259480,
			"target":34962
		},
		{
			"buffer":0,
			"byteLength":28752,
			"byteOffset":288232,
			"target":34962
		},
		{
			"buffer":0,
			"byteLength":19168,
			"byteOffset":316984,
			"target":34962
		},
		{
			"buffer":0,
			"byteLength":9584,
			"byteOffset":336152,
			"target":34962
		},
		{
			"buffer":0,
			"byteLength":19168,
			"byteOffset":345736,
			"target":34962
		},
		{
			"buffer":0,
			"byteLength":27648,
			"byteOffset":364904,
			"target":34963
		},
		{
			"buffer":0,
			"byteLength":14544,
			"byteOffset":392552,
			"target":34962
		},
		{
			"buffer":0,
			"byteLength":14544,
			"byteOffset":407096,
			"target":34962
		},
		{
			"buffer":0,
			"byteLength":9696,
			"byteOffset":421640,
			"target":34962
		},
		{
			"buffer":0,
			"byteLength":4848,
			"byteOffset":431336,
			"target":34962
		},
		{
			"buffer":0,
			"byteLength":9696,
			"byteOffset":436184,
			"target":34962
		},
		{
			"buffer":0,
			"byteLength":13920,
			"byteOffset":445880,
			"target":34963
		},
		{
			"buffer":0,
			"byteLength":32136,
			"byteOffset":459800,
			"target":34962
		},
		{
			"buffer":0,
			"byteLength":32136,
			"byteOffset":491936,
			"target":34962
		},
		{
			"buffer":0,
			"byteLength":10712,
			"byteOffset":524072,
			"target":34962
		},
		{
			"buffer":0,
			"byteLength":21424,
			"byteOffset":534784,
			"target":34962
		},
		{
			"buffer":0,
			"byteLength":32064,
			"byteOffset":556208,
			"target":34963
		},
		{
			"buffer":0,
			"byteLength":3072,
			"byteOffset":588272,
			"target":34962
		},
		{
			"buffer":0,
			"byteLength":3072,
			"byteOffset":591344,
			"target":34962
		},
		{
			"buffer":0,
			"byteLength":1024,
			"byteOffset":594416,
			"target":34962
		},
		{
			"buffer":0,
			"byteLength":2048,
			"byteOffset":595440,
			"target":34962
		},
		{
			"buffer":0,
			"byteLength":3072,
			"byteOffset":597488,
			"target":34963
		},
		{
			"buffer":0,
			"byteLength":58368,
			"byteOffset":600560,
			"target":34962
		},
		{
			"buffer":0,
			"byteLength":58368,
			"byteOffset":658928,
			"target":34962
		},
		{
			"buffer":0,
			"byteLength":19456,
			"byteOffset":717296,
			"target":34962
		},
		{
			"buffer":0,
			"byteLength":38912,
			"byteOffset":736752,
			"target":34962
		},
		{
			"buffer":0,
			"byteLength":58272,
			"byteOffset":775664,
			"target":34963
		},
		{
			"buffer":0,
			"byteLength":336660,
			"byteOffset":833936,
			"target":34962
		},
		{
			"buffer":0,
			"byteLength":336660,
			"byteOffset":1170596,
			"target":34962
		},
		{
			"buffer":0,
			"byteLength":112220,
			"byteOffset":1507256,
			"target":34962
		},
		{
			"buffer":0,
			"byteLength":224440,
			"byteOffset":1619476,
			"target":34962
		},
		{
			"buffer":0,
			"byteLength":323328,
			"byteOffset":1843916,
			"target":34963
		},
		{
			"buffer":0,
			"byteLength":4920,
			"byteOffset":2167244,
			"target":34962
		},
		{
			"buffer":0,
			"byteLength":4920,
			"byteOffset":2172164,
			"target":34962
		},
		{
			"buffer":0,
			"byteLength":1640,
			"byteOffset":2177084,
			"target":34962
		},
		{
			"buffer":0,
			"byteLength":3280,
			"byteOffset":2178724,
			"target":34962
		},
		{
			"buffer":0,
			"byteLength":3840,
			"byteOffset":2182004,
			"target":34963
		},
		{
			"buffer":0,
			"byteLength":3360,
			"byteOffset":2185844,
			"target":34962
		},
		{
			"buffer":0,
			"byteLength":3360,
			"byteOffset":2189204,
			"target":34962
		},
		{
			"buffer":0,
			"byteLength":1120,
			"byteOffset":2192564,
			"target":34962
		},
		{
			"buffer":0,
			"byteLength":2240,
			"byteOffset":2193684,
			"target":34962
		},
		{
			"buffer":0,
			"byteLength":2880,
			"byteOffset":2195924,
			"target":34963
		},
		{
			"buffer":0,
			"byteLength":61968,
			"byteOffset":2198804,
			"target":34962
		},
		{
			"buffer":0,
			"byteLength":61968,
			"byteOffset":2260772,
			"target":34962
		},
		{
			"buffer":0,
			"byteLength":61056,
			"byteOffset":2322740,
			"target":34963
		},
		{
			"buffer":0,
			"byteLength":5976,
			"byteOffset":2383796,
			"target":34962
		},
		{
			"buffer":0,
			"byteLength":5976,
			"byteOffset":2389772,
			"target":34962
		},
		{
			"buffer":0,
			"byteLength":5952,
			"byteOffset":2395748,
			"target":34963
		}
	],
	"buffers":[
		{
			"byteLength":2401700,
			"uri":"Animecharacter.bin"
		}
	]
}
